<svg xmlns="http://www.w3.org/2000/svg" width="1200" height="430" viewBox="0 0 1200 430" role="img" aria-label="banner"><defs><linearGradient id="bg" x2="1" y2="1"><stop stop-color="#11162b"/><stop offset="1" stop-color="#090f1d"/></linearGradient><linearGradient id="accent"><stop stop-color="#ac8aff"/><stop offset="1" stop-color="#64d9ea"/></linearGradient><pattern id="grid" width="36" height="36" patternUnits="userSpaceOnUse"><path d="M36 0H0V36" fill="none" stroke="#33405e" stroke-opacity=".23"/></pattern></defs><rect width="1200" height="430" rx="20" fill="url(#bg)"/><rect x="710" width="490" height="430" fill="url(#grid)"/><path d="M0 1H1200" stroke="url(#accent)" stroke-width="3"/><text x="48" y="53" font-family="DejaVu Sans,Arial,sans-serif" font-size="13" font-weight="500" letter-spacing="2" fill="#a6b1d1">POLARCO  /  DEVELOPER PROFILE</text><text x="46" y="142" font-family="DejaVu Sans,Arial,sans-serif" font-size="64" font-weight="700" letter-spacing="-2" fill="#f2f4ff">Filipe Fabiani</text><text x="49" y="187" font-family="DejaVu Sans,Arial,sans-serif" font-size="25" font-weight="400" letter-spacing="0" fill="#d2daf0">Desenvolvimento, automação</text><text x="49" y="221" font-family="DejaVu Sans,Arial,sans-serif" font-size="25" font-weight="400" letter-spacing="0" fill="#d2daf0">e experimentação aplicada.</text><text x="49" y="274" font-family="DejaVu Sans,Arial,sans-serif" font-size="17" font-weight="400" letter-spacing="0" fill="#91a4c2">Da interface ao servidor. Do desktop ao portátil.</text><rect x="49" y="307" width="149" height="32" rx="7" fill="#19233b" stroke="#35415d"/><text x="65" y="328" font-family="DejaVu Sans,Arial,sans-serif" font-size="11" font-weight="500" letter-spacing="1" fill="#bdcbeb">APLICAÇÕES</text><rect x="210" y="307" width="161" height="32" rx="7" fill="#19233b" stroke="#35415d"/><text x="226" y="328" font-family="DejaVu Sans,Arial,sans-serif" font-size="11" font-weight="500" letter-spacing="1" fill="#bdcbeb">FERRAMENTAS</text><rect x="383" y="307" width="154" height="32" rx="7" fill="#19233b" stroke="#35415d"/><text x="399" y="328" font-family="DejaVu Sans,Arial,sans-serif" font-size="11" font-weight="500" letter-spacing="1" fill="#bdcbeb">HOMEBREW</text><path d="M49 370H645" stroke="#2a3650"/><text x="49" y="398" font-family="DejaVu Sans,Arial,sans-serif" font-size="11" font-weight="500" letter-spacing="2" fill="#7f91b2">BRASIL</text><text x="475" y="398" font-family="DejaVu Sans,Arial,sans-serif" font-size="12" font-weight="400" letter-spacing="0" fill="#9eace0">github.com/polarco</text><circle cx="982" cy="209" r="143" fill="none" stroke="#273651"/><circle cx="982" cy="209" r="174" fill="none" stroke="#20314a" stroke-dasharray="3 10"/><path d="M778 338L878 223L950 303L1022 239L1160 356Z" fill="#192e47"/><path d="M878 223L850 272L877 262L903 279Z" fill="#668fba"/><rect x="760" y="83" width="362" height="217" rx="14" fill="#0c1425" stroke="#415071"/><path d="M760 122H1122" stroke="#33415e"/><circle cx="782" cy="103" r="4" fill="#a88be8"/><circle cx="800" cy="103" r="4" fill="#7399e5"/><circle cx="818" cy="103" r="4" fill="#63cbce"/><text x="939" y="107" font-family="DejaVu Sans,Arial,sans-serif" font-size="11" font-weight="400" letter-spacing="0" fill="#8091b3">polarco / workspace</text><text x="785" y="158" font-family="DejaVu Sans,Arial,sans-serif" font-size="12" font-weight="400" letter-spacing="0" fill="#596b90">01</text><text x="820" y="158" font-family="DejaVu Sans,Arial,sans-serif" font-size="18" font-weight="400" letter-spacing="0" fill="#cad4f0">build interfaces</text><text x="785" y="193" font-family="DejaVu Sans,Arial,sans-serif" font-size="12" font-weight="400" letter-spacing="0" fill="#596b90">02</text><text x="820" y="193" font-family="DejaVu Sans,Arial,sans-serif" font-size="18" font-weight="400" letter-spacing="0" fill="#cad4f0">connect systems</text><text x="785" y="228" font-family="DejaVu Sans,Arial,sans-serif" font-size="12" font-weight="400" letter-spacing="0" fill="#596b90">03</text><text x="820" y="228" font-family="DejaVu Sans,Arial,sans-serif" font-size="18" font-weight="400" letter-spacing="0" fill="#cad4f0">explore hardware</text><text x="785" y="275" font-family="DejaVu Sans,Arial,sans-serif" font-size="15" font-weight="400" letter-spacing="0" fill="#91decf">&gt; curiosity.into(code)</text><rect x="1018" y="324" width="116" height="44" rx="10" fill="#211e3b" stroke="#625084"/><text x="1039" y="352" font-family="DejaVu Sans,Arial,sans-serif" font-size="23" font-weight="700" letter-spacing="0" fill="#c3abff">&lt;/&gt;</text></svg>